PathFileType	4	(X/Y/Z)	D:\TRACE\v60_Jaco2_6-2-23\JustArmDRS_Motion2_4-platform.trc
DataRate	CameraRate	NumFrames	NumMarkers	Units	OrigDataRate	OrigDataStartFrame	OrigNumFrames
100.00	100.00	      44	5	mm	100.00	1	      6902
Frame#	Time	Left_Front			Right_Front			Left_Aft			Right_Aft			Post			
		X1	Y1	Z1	X2	Y2	Z2	X3	Y3	Z3	X4	Y4	Z4	X5	Y5	Z5	

1	0.000	-800.70013	8.81126	-638.84021	769.28052	10.12823	-644.37183	-708.70612	7.83582	496.09619	733.09961	7.01679	505.99612	-14.59993	1308.08911	-961.76990	
2	0.010	-800.66467	8.79812	-638.88403	769.31122	10.10643	-644.38275	-708.72943	7.85614	496.12079	733.07690	7.03416	505.97729	-14.55667	1308.09021	-961.77991	
3	0.020	-800.65527	8.75914	-638.94397	769.33276	10.11608	-644.39423	-708.72150	7.87120	496.09421	733.10223	7.02798	505.96509	-14.60428	1308.11194	-961.77142	
4	0.030	-800.61908	8.70781	-638.98047	769.31812	10.13310	-644.36200	-708.73889	7.88012	496.12329	733.09064	7.03115	505.98029	-14.55762	1308.08386	-961.74957	
5	0.040	-800.72607	8.77951	-638.86963	769.34540	10.14155	-644.36731	-708.75659	7.87973	496.11813	733.02930	6.98778	506.00876	-14.64861	1308.09631	-961.78632	
6	0.050	-800.69220	8.69671	-638.85510	769.30255	10.11383	-644.36401	-708.73944	7.85114	496.12167	733.04785	6.99562	505.99997	-14.56051	1308.06702	-961.76495	
7	0.060	-800.71277	8.80157	-638.83362	769.26599	10.13796	-644.38495	-708.73108	7.87782	496.08804	733.06567	7.02457	505.98624	-14.58689	1308.09302	-961.76050	
8	0.070	-800.67822	8.74133	-638.91571	769.29523	10.12496	-644.42688	-708.72858	7.86158	496.11353	733.10822	7.04177	505.97717	-14.53911	1308.09631	-961.78693	
9	0.080	-800.71332	8.83500	-638.88940	769.28497	10.10489	-644.41632	-708.79846	7.87871	496.05875	733.09796	7.01606	505.98328	-14.66418	1308.11487	-961.79944	
10	0.090	-800.69415	8.75468	-638.87885	769.32434	10.10459	-644.36365	-708.76880	7.87616	496.09824	733.35217	6.95487	505.84665	-14.61306	1308.09155	-961.73840	
11	0.100	-800.71936	8.75132	-638.89349	769.24139	10.09266	-644.41174	-708.75964	7.84350	496.10327	733.09125	7.01336	505.97290	-14.63348	1308.08862	-961.76990	
12	0.110	-800.64606	8.74727	-638.88324	769.35071	10.11430	-644.36829	-708.73059	7.85262	496.08902	733.08807	7.03853	505.99115	-14.59365	1308.09436	-961.77155	
13	0.120	-800.68542	8.77404	-638.90149	769.30090	10.12390	-644.40387	-708.71936	7.82984	496.13126	733.36932	6.98486	505.87708	-14.63999	1308.07227	-961.74066	
14	0.130	-800.67224	8.68969	-638.87592	769.34961	10.08252	-644.37482	-708.77405	7.86402	496.10126	733.02734	7.01455	506.03781	-14.58541	1308.07861	-961.74310	
15	0.140	-800.69702	8.80559	-638.81354	769.30731	10.11202	-644.38818	-708.74835	7.86867	496.12820	733.06757	7.02605	506.01263	-14.65583	1308.06506	-961.71606	
16	0.150	-800.70874	8.74638	-638.85199	769.32080	10.10131	-644.35468	-708.72485	7.84946	496.11249	733.05750	7.02542	506.01089	-14.64747	1308.11206	-961.79956	
17	0.160	-800.67804	8.76473	-638.88519	769.32373	10.08805	-644.39063	-708.73004	7.84231	496.10022	733.11029	7.05292	505.97339	-14.59593	1308.07568	-961.78119	
18	0.170	-800.67712	8.78829	-638.90082	769.28259	10.14782	-644.39642	-708.77466	7.87259	496.11130	733.06384	7.04864	505.98999	-14.55976	1308.11951	-961.77368	
19	0.180	-800.66083	8.78735	-638.88068	769.30615	10.12263	-644.39008	-708.74811	7.90121	496.08502	733.10919	7.04393	505.99506	-14.61074	1308.10767	-961.75098	
20	0.190	-800.68005	8.73738	-638.91791	769.33575	10.09801	-644.39539	-708.75842	7.86322	496.11374	733.08191	7.04185	506.01071	-14.59288	1308.10950	-961.73920	
21	0.200	-800.67322	8.73125	-638.89893	769.33270	10.10960	-644.39392	-708.72955	7.84517	496.14243	733.10876	7.03276	505.96924	-14.60656	1308.09375	-961.78302	
22	0.210	-800.70520	8.78095	-638.84967	769.20959	10.12128	-644.42535	-708.74445	7.82749	496.08752	733.04108	7.00689	506.00134	-14.65613	1308.08374	-961.74707	
23	0.220	-800.68365	8.83596	-638.88696	769.28107	10.17730	-644.37305	-708.73676	7.83401	496.10492	733.09985	7.02420	505.98306	-14.58664	1308.10510	-961.79706	
24	0.230	-800.66565	8.77805	-638.86407	769.30389	10.12109	-644.40204	-708.76782	7.89113	496.10651	733.11578	7.05339	505.98273	-14.60753	1308.10498	-961.77496	
25	0.240	-800.66797	8.80675	-638.87897	769.27808	10.14813	-644.40326	-708.74750	7.88041	496.07721	733.06323	7.00938	506.00238	-14.60579	1308.07849	-961.74921	
26	0.250	-800.69659	8.80059	-638.86566	769.28027	10.14852	-644.39044	-708.68994	7.83240	496.13644	733.03564	6.99065	506.01596	-14.63772	1308.08716	-961.79578	
27	0.260	-800.73065	8.77856	-638.85687	769.23230	10.11940	-644.40637	-708.72797	7.83450	496.13052	733.01428	7.00047	506.00763	-14.62504	1308.07349	-961.79053	
28	0.270	-800.67987	8.70924	-638.88342	769.34900	10.09238	-644.37274	-708.71088	7.83609	496.08362	733.03180	7.00108	506.01154	-14.61562	1308.08691	-961.71783	
29	0.280	-800.69525	8.78261	-638.89874	769.31354	10.09792	-644.41699	-708.72748	7.85313	496.13794	733.11536	7.02729	505.99933	-14.52455	1308.10303	-961.76904	
30	0.290	-800.63184	8.79457	-638.91132	769.35248	10.09822	-644.40643	-708.73853	7.86899	496.13028	733.09674	7.01337	505.97638	-14.61714	1308.08301	-961.77063	
31	0.300	-800.70697	8.83803	-638.83813	769.31476	10.14753	-644.34985	-708.78455	7.85258	496.10635	733.10956	7.04562	505.97406	-14.56598	1308.09058	-961.77618	
32	0.310	-800.72913	8.76214	-638.84991	769.29736	10.09134	-644.40387	-708.71326	7.84365	496.12610	733.07196	7.02706	505.99170	-14.60334	1308.08228	-961.76007	
33	0.320	-800.68488	8.77689	-638.84637	769.32996	10.11343	-644.41602	-708.76270	7.85862	496.10666	733.08130	7.03823	506.01703	-14.60854	1308.08887	-961.78137	
34	0.330	-800.67035	8.74124	-638.86371	769.25378	10.11621	-644.40674	-708.72968	7.85373	496.09045	733.05341	6.99925	505.98892	-14.58968	1308.11389	-961.77002	
35	0.340	-800.69995	8.79514	-638.82556	769.25073	10.11022	-644.37067	-708.72937	7.83557	496.08676	733.08679	7.02872	505.98672	-14.63892	1308.09814	-961.75800	
36	0.350	-800.66815	8.72272	-638.90228	769.26538	10.10833	-644.38495	-708.73865	7.86193	496.09308	733.12744	7.05243	505.94568	-14.56766	1308.06543	-961.77124	
37	0.360	-800.69226	8.72375	-638.83691	769.32709	10.13148	-644.34344	-708.71893	7.82302	496.13553	733.08588	7.04758	505.98798	-14.62098	1308.11304	-961.76434	
38	0.370	-800.68744	8.72365	-638.86115	769.35406	10.10200	-644.38812	-708.78320	7.85053	496.10135	733.06647	7.00984	505.98129	-14.62955	1308.08423	-961.77209	
39	0.380	-800.65552	8.75207	-638.88556	769.35608	10.08313	-644.39435	-708.74469	7.81308	496.10193	733.36609	6.97706	505.86414	-14.57111	1308.10364	-961.76819	
40	0.390	-800.66022	8.78098	-638.89429	769.23718	10.14633	-644.40955	-708.73254	7.84195	496.07166	733.13593	7.04500	505.98706	-14.53374	1308.10596	-961.75250	
41	0.400	-800.66479	8.79365	-638.89789	769.34589	10.11374	-644.39502	-708.72522	7.84822	496.09277	733.11792	7.04482	505.98199	-14.60023	1308.10938	-961.79547	
42	0.410	-800.66949	8.75262	-638.87726	769.33301	10.11946	-644.43207	-708.75726	7.84843	496.08456	733.13519	7.04448	505.96982	-14.60636	1308.11072	-961.78198	
43	0.420	-800.68372	8.73494	-638.85107	769.28345	10.16277	-644.39557	-708.77728	7.84672	496.09781	733.39954	6.99525	505.86365	-14.63528	1308.05286	-961.73633	
44	0.430	-800.67371	8.73608	-638.88129	769.26178	10.12503	-644.40808	-708.77167	7.84585	496.10129	733.04706	7.02654	506.01758	-14.64730	1308.06836	-961.76764	
